<svg width="16" height="16" viewBox="0 0 16 16" fill="none" xmlns="http://www.w3.org/2000/svg">
<rect width="16" height="16" rx="4" fill="#101010"/>
<path d="M6.73207 5.21145C6.24964 4.93297 5.63279 5.09822 5.35431 5.58064L3.13528 9.42392C2.8568 9.90633 3.02205 10.5232 3.50448 10.8016C3.98691 11.0801 4.60376 10.9149 4.88224 10.4324L7.10127 6.58917C7.37976 6.10675 7.2145 5.48992 6.73207 5.21145Z" fill="url(#paint0_linear_17934_47083)"/>
<path d="M6.73184 5.21145C6.24941 4.93297 5.63256 5.09822 5.35408 5.58064C5.07548 6.06306 5.24085 6.67989 5.72328 6.95837C6.20571 7.23684 6.82256 7.07159 7.10104 6.58917C7.37952 6.10675 7.21427 5.48992 6.73184 5.21145Z" fill="url(#paint1_linear_17934_47083)"/>
<path d="M12.4903 10.7839C12.0077 11.0626 11.3912 10.8974 11.1126 10.4147L9.76683 8.08454L8.42158 10.4147C8.23442 10.7383 7.89557 10.9193 7.5472 10.9193C7.37576 10.9193 7.20276 10.8755 7.0437 10.7839C6.56103 10.5058 6.39578 9.88885 6.6745 9.40619L8.60243 6.06784L8.89353 5.56328C8.8952 5.56042 8.89687 5.55768 8.89806 5.55482C8.90425 5.5453 8.90984 5.53518 8.91603 5.52565C8.91937 5.52113 8.92223 5.51661 8.92508 5.5122C8.93127 5.50268 8.93746 5.49315 8.94413 5.4841C8.94747 5.47958 8.95092 5.47458 8.95425 5.47005C8.96044 5.4616 8.96663 5.45315 8.9733 5.44529C8.97723 5.43969 8.98175 5.43458 8.98568 5.42898C8.99188 5.42219 8.99747 5.41493 9.00366 5.40814C9.00878 5.40195 9.01438 5.39576 9.01997 5.38957C9.0245 5.38457 9.0295 5.37886 9.03462 5.37386C9.04188 5.36659 9.04867 5.35921 9.05545 5.35195C9.05938 5.34802 9.06331 5.34469 9.06784 5.34076C9.07629 5.33231 9.08474 5.32445 9.09367 5.31659C9.09653 5.31373 9.09927 5.31159 9.10212 5.30873C9.11224 5.2998 9.12296 5.29135 9.13308 5.2829C9.13534 5.28123 9.13701 5.27956 9.13927 5.27837C9.15046 5.26885 9.16225 5.2598 9.17463 5.25135C9.1757 5.25028 9.17689 5.24908 9.17797 5.24849C9.19094 5.23896 9.2038 5.23051 9.21726 5.22206C9.21785 5.22099 9.21892 5.22039 9.22011 5.2198C9.2313 5.21253 9.24309 5.20515 9.25547 5.19789L9.26274 5.19396C9.26274 5.19396 9.26381 5.19289 9.265 5.19229C9.27738 5.18551 9.29024 5.17825 9.30322 5.17146C9.30607 5.17039 9.30941 5.1686 9.31215 5.16694C9.31548 5.16527 9.31941 5.16301 9.32286 5.16194C9.33012 5.15801 9.33691 5.15467 9.34417 5.15122C9.34977 5.14896 9.35536 5.1467 9.36048 5.14396C9.36894 5.14062 9.3762 5.13717 9.38406 5.13443L9.38465 5.13384C9.39311 5.1305 9.40156 5.12705 9.40942 5.12431C9.41442 5.12205 9.41954 5.12038 9.42454 5.11872C9.42966 5.11705 9.43466 5.11538 9.43966 5.11372C9.44359 5.11205 9.44692 5.11086 9.45037 5.10979C9.45323 5.10872 9.45537 5.10812 9.45823 5.10693C9.4599 5.10634 9.46157 5.10586 9.46323 5.10526C9.47276 5.10241 9.48181 5.09967 9.49133 5.09741C9.54134 5.08276 9.59194 5.07264 9.64301 5.06645C9.6604 5.06359 9.67837 5.06193 9.69635 5.06086H9.70195C9.716 5.05978 9.72945 5.05919 9.7435 5.05859H9.79017C9.80362 5.05919 9.8172 5.05967 9.83125 5.06086H9.83684C9.85649 5.06252 9.87613 5.06419 9.8959 5.06705C9.93745 5.07217 9.979 5.08002 10.0201 5.09122C10.0251 5.09229 10.0308 5.09407 10.0358 5.09574C10.0476 5.098 10.0588 5.10193 10.0707 5.10526C10.0723 5.10586 10.074 5.10634 10.0758 5.10693C10.0781 5.10753 10.0803 5.1086 10.0826 5.10919C10.1068 5.11705 10.1303 5.1261 10.1539 5.13622C10.1607 5.13908 10.1669 5.14134 10.1729 5.14408C10.1785 5.14693 10.1841 5.14908 10.1893 5.15134C10.2005 5.15646 10.2112 5.16146 10.2219 5.16705C10.2247 5.16872 10.2275 5.17039 10.2309 5.17158C10.2411 5.17717 10.2512 5.18277 10.2613 5.18789C10.2652 5.19015 10.2697 5.19289 10.2737 5.19515C10.2871 5.20301 10.3007 5.21146 10.3142 5.21992C10.3152 5.22051 10.3158 5.22099 10.317 5.22218C10.3193 5.22325 10.3215 5.22504 10.3238 5.2267C10.3345 5.23349 10.3457 5.24075 10.3558 5.24861C10.3592 5.25028 10.362 5.25254 10.3649 5.25539C10.3727 5.26099 10.3806 5.26659 10.3884 5.27337C10.4019 5.2829 10.4143 5.29361 10.4267 5.30433C10.4283 5.3054 10.4306 5.30718 10.4323 5.30885C10.4351 5.31171 10.4379 5.31397 10.4407 5.31671C10.4721 5.34481 10.5025 5.37517 10.5306 5.40826C10.5368 5.41505 10.5424 5.42231 10.548 5.4291C10.5525 5.43469 10.5564 5.43922 10.5604 5.44481C10.5626 5.44708 10.5649 5.44981 10.5666 5.45267C10.5711 5.45827 10.5756 5.46386 10.58 5.47005C10.5833 5.47458 10.5868 5.47958 10.5895 5.4841C10.5945 5.49089 10.5991 5.49756 10.6036 5.50434C10.6058 5.5066 10.6075 5.50946 10.6092 5.5122C10.612 5.51672 10.6148 5.52125 10.6176 5.52565C10.6238 5.53518 10.63 5.5453 10.6356 5.55482C10.6373 5.55768 10.6389 5.56042 10.6407 5.56328L12.8598 9.40608C13.1385 9.88873 12.9728 10.5057 12.4906 10.7838L12.4903 10.7839Z" fill="white"/>
<path d="M12.4896 10.7839C12.0069 11.0626 11.3904 10.8974 11.1118 10.4147L9.7661 8.08454L8.89303 6.5724C8.71278 6.26024 8.71278 5.87556 8.8928 5.5634C8.89446 5.56054 8.89613 5.5578 8.89732 5.55494C8.90351 5.54542 8.90911 5.5353 8.9153 5.52577C8.91863 5.52125 8.92149 5.51672 8.92435 5.51232C8.93054 5.5028 8.93673 5.49327 8.9434 5.48422C8.94673 5.4797 8.95018 5.4747 8.95352 5.47017C8.95971 5.46172 8.9659 5.45327 8.97257 5.44541C8.9765 5.43981 8.98102 5.43469 8.98495 5.4291C8.99114 5.42231 8.99674 5.41505 9.00293 5.40826C9.00805 5.40207 9.01364 5.39588 9.01924 5.38969C9.02376 5.38469 9.02876 5.37898 9.03388 5.37398C9.04115 5.36671 9.04793 5.35933 9.05472 5.35207C9.05865 5.34814 9.06258 5.34481 9.0671 5.34088C9.07555 5.33242 9.08401 5.32457 9.09294 5.31671C9.09579 5.31385 9.09853 5.31171 9.10139 5.30885C9.11151 5.29992 9.12222 5.29147 9.13234 5.28302C9.13461 5.28135 9.13627 5.27968 9.13854 5.27849C9.14973 5.26897 9.16151 5.25992 9.1739 5.25147C9.17497 5.25039 9.17616 5.2492 9.17723 5.24861C9.19021 5.23908 9.20307 5.23063 9.21652 5.22218C9.21712 5.22111 9.21819 5.22051 9.21938 5.21992C9.23057 5.21265 9.24236 5.20527 9.25474 5.19801L9.262 5.19408C9.28165 5.18289 9.30189 5.17217 9.32213 5.16205C9.34237 5.15193 9.3632 5.14301 9.38332 5.13455L9.38392 5.13396C9.40249 5.12669 9.42106 5.11991 9.43904 5.11372C9.44297 5.11205 9.4463 5.11086 9.44976 5.10979C9.46321 5.10526 9.47726 5.10086 9.49083 5.09741C9.54084 5.08276 9.59144 5.07264 9.64252 5.06645C9.66216 5.06359 9.68181 5.06193 9.70157 5.06086C9.72288 5.05919 9.74431 5.05859 9.76562 5.05859H9.76622C9.78753 5.05859 9.80944 5.05919 9.83087 5.06086C9.85277 5.06193 9.87409 5.06419 9.89552 5.06705C9.93766 5.07264 9.97862 5.0805 10.0197 5.09122C10.0247 5.09229 10.0304 5.09407 10.0354 5.09574C10.0511 5.09967 10.0664 5.10419 10.0821 5.10919C10.1063 5.11705 10.1298 5.1261 10.1534 5.13622C10.1652 5.14074 10.177 5.14634 10.1888 5.15134C10.2 5.15646 10.2107 5.16146 10.2214 5.16705C10.2348 5.17384 10.2478 5.18051 10.2607 5.18789C10.2646 5.19015 10.2691 5.19289 10.2731 5.19515C10.2877 5.20361 10.3022 5.21253 10.3163 5.22218C10.3185 5.22325 10.3208 5.22504 10.3231 5.2267C10.3338 5.23349 10.345 5.24075 10.3551 5.24861C10.3584 5.25028 10.3613 5.25254 10.3641 5.25539C10.372 5.26099 10.3799 5.26659 10.3877 5.27337C10.4012 5.2829 10.4135 5.29361 10.4259 5.30433C10.431 5.30826 10.4355 5.31218 10.44 5.31671C10.4714 5.34481 10.5018 5.37517 10.5299 5.40826C10.54 5.42005 10.5501 5.43243 10.5596 5.44481C10.5619 5.44708 10.5642 5.44981 10.5658 5.45267C10.5737 5.46279 10.5815 5.47351 10.5889 5.4841C10.5939 5.49089 10.5984 5.49756 10.603 5.50434C10.6142 5.52065 10.6249 5.53744 10.635 5.55494C10.6367 5.5578 10.6383 5.56054 10.6401 5.5634L12.8592 9.40619C13.1379 9.88885 12.9721 10.5058 12.4899 10.7839H12.4896Z" fill="white"/>
<defs>
<linearGradient id="paint0_linear_17934_47083" x1="5.58862" y1="10.6738" x2="4.64797" y2="5.3393" gradientUnits="userSpaceOnUse">
<stop stop-color="#FBB034"/>
<stop offset="1" stop-color="#FFDD00"/>
</linearGradient>
<linearGradient id="paint1_linear_17934_47083" x1="6.40264" y1="7.07814" x2="6.05238" y2="5.09155" gradientUnits="userSpaceOnUse">
<stop stop-color="#FBB034"/>
<stop offset="1" stop-color="#FFDD00"/>
</linearGradient>
</defs>
</svg>
